<svg xmlns="http://www.w3.org/2000/svg" viewBox="0 0 512 512"><path d="M256.2 7.8c-137 0-248 111-248 248s111 248 248 248 248-111 248-248-111-248-248-248zm0 48c110.5 0 200 89.5 200 200s-89.5 200-200 200-200-89.5-200-200 89.5-200 200-200"/><path d="M365.7 321.5L300 255.8l65.7-65.7c8.1-8.1 8.1-21.1 0-29.2l-14.6-14.6c-8.1-8.1-21.1-8.1-29.2 0L256.2 212l-65.7-65.7c-8.1-8.1-21.1-8.1-29.2 0L146.8 161c-8.1 8.1-8.1 21.1 0 29.2l65.7 65.7-65.7 65.7c-8.1 8.1-8.1 21.1 0 29.2l14.6 14.6c8.1 8.1 21.1 8.1 29.2 0l65.7-65.7 65.7 65.7c8.1 8.1 21.1 8.1 29.2 0l14.6-14.6c8-8.1 8-21.2-.1-29.3z"/></svg>