<svg version="1.1" id="Layer_1" xmlns="http://www.w3.org/2000/svg" x="0" y="0" viewBox="0 0 777 512" xml:space="preserve"><style>.st0{fill:#fff}</style><path class="st0" d="M257 370h-41.4v16.8h39.9c7.7 0 10.6 4.4 10.6 9.1 0 4.4-2.9 7.7-10.6 7.7h-39.9v38.1h19.8v-21.2H257c16.8 0 29.3-11 29.3-24.5 0-15.4-12.5-26-29.3-26M304.6 370H369v16.8h-46.1v10.6h30.7v16.9h-30.7v10.6H369v16.8h-64.4zM388.8 370h64.4v16.8h-44.7v10.6h30.8v16.9h-30.8v27.4h-19.7zM505.1 385c6.2 0 12.4 3.3 16.8 7.7l15.4-10.6c-9.1-9.1-19.8-13.9-32.2-13.9-23.1 0-42.8 16.8-42.8 38.4 0 19.8 19.8 36.6 42.8 36.6 12.4 0 23.1-4.4 32.2-13.5l-15.4-9.1c-4.4 2.9-10.6 5.9-16.8 5.9-12.1 0-23.1-9.1-23.1-19.8.1-12.2 11.1-21.7 23.1-21.7M376.7 271.9v-32.2h-49 1.5c21.2-12.4 35.1-33.7 35.1-58.2 0-4.8-1.5-9.1-1.5-12.4l28.9-54.9 61.5 125.5h-46.1v32.2h-30.4z"/><path class="st0" d="M278.6 234.9v38.4H309v-37c24.5-5.9 41.4-28.9 41.4-53.4 0-32.2-24.5-56.7-56.7-56.7-30.4 0-56.4 24.5-56.4 56.7-.1 24.6 18.2 46.2 41.3 52"/><path class="st0" d="M263.2 121.8c2.9-1.8 6.2-3.3 9.1-4.8 30.7-32.2 73.6-52 116.4-52 68.8 0 110.2 52 99.5 116.4l27.4-24.5 16.8 19.8C542.1 103.2 491.2 45 413.3 45c-56.7 0-113.5 30.7-151.5 75l1.4 1.8"/><path class="st0" d="M341.2 343.6c82.7 0 166.9-64 188.5-145.3l-18.3-20.1-30.7 29.3c-23.1 61.1-87.1 108.7-153 108.7s-109.1-50.5-98.1-114.9c-1.5-4.4-3.3-9.1-3.3-13.5-1.5 2.9-1.5 4.4-1.5 7.3-21.2 82.6 30.7 148.5 116.4 148.5M534.4 354.6h12.1v2.9h-2.9v10.6h-4.8v-10.6h-4.4zM548 354.6h6.2l1.4 7.7 1.5-7.7h6.2v13.5h-2.9v-10.6l-3.3 10.6h-2.9l-2.9-10.6v10.6H548z"/></svg>