<svg xmlns="http://www.w3.org/2000/svg" viewBox="0 0 512 512"><path d="M256.2 7.8c-137 0-248 111-248 248s111 248 248 248 248-111 248-248-111-248-248-248zm0 48c110.5 0 200 89.5 200 200s-89.5 200-200 200-200-89.5-200-200 89.5-200 200-200"/><path d="M380.1 224.9h-92.9V132c0-11.4-9.2-20.6-20.6-20.6H246c-11.4 0-20.6 9.2-20.6 20.6v92.9h-92.9c-11.4 0-20.6 9.2-20.6 20.6v20.6c0 11.4 9.2 20.6 20.6 20.6h92.9v92.9c0 11.4 9.2 20.6 20.6 20.6h20.6c11.4 0 20.6-9.2 20.6-20.6v-92.9h92.9c11.4 0 20.6-9.2 20.6-20.6v-20.6c.1-11.4-9.2-20.6-20.6-20.6z"/></svg>