<svg xmlns="http://www.w3.org/2000/svg" viewBox="0 0 777 512"><path fill="currentColor" d="M537 75H11c-4.4 0-8 4.6-8 9v36c0 4.4 3.6 8 8 8h472c4.4 0 8 3.6 8 8v4c0 4.4-3.6 8-8 8H11c-4.4 0-8 3.6-8 8v34c0 4.4 3.6 8 8 8h471c4.4 0 8 3.6 8 8v4c0 4.4-3.6 8-8 8H11c-4.4 0-8 3.6-8 8v34c0 4.4 3.6 8 8 8h439c4.4 0 8 3.6 8 8v4c0 4.4-3.6 8-8 8H56v128c0 53 43 96 96 96s96-43 96-96h273c0 53 43 96 96 96s96-43 96-96h48c8.8 0 16-7.2 16-16v-32c0-8.8-7.2-16-16-16h-16V243.9c0-12.7-5.1-24.9-14.1-33.9L631 110.1c-9-9-21.2-14.1-33.9-14.1H553c0-11.8-3-21-16-21zM152 464c-26.5 0-48-21.5-48-48s21.5-48 48-48 48 21.5 48 48-21.5 48-48 48zm465 0c-26.5 0-48-21.5-48-48s21.5-48 48-48 48 21.5 48 48-21.5 48-48 48zm80-208H553V144h44.1l99.9 99.9V256z"/></svg>